<svg width="117" height="105" fill="none" xmlns="http://www.w3.org/2000/svg"><circle cx="11.5" cy="4.5" r="4.5" fill="#fff"/><path d="M8 38l3.514 15.839L15 38h8.027v23h-5.156v-5.652l.498-11.196L14 61H9L4.644 44.138 5 55.348V61H0V38h8zm53.97 14h-31l.03 4h31l-.03 5H26.003V38.03H52V43H31v4h30.97v5z" fill="#fff"/><path d="M94 43H83v19h-5V43H51v-4.97h43V43zM5 96.974V105H0V83h5.16c2.382 0 4.272.62 5.668 1.86 1.406 1.24 2.11 2.881 2.11 4.922 0 2.718-.689 4.286-2.066 5.449-1.367 1.162-3.286 1.743-5.757 1.743H5zM5 93h3.16c1.318 0 2.323-.308 3.017-.923C11.87 91.452 12 91 12 90c0-.5-.135-1.247-.838-1.93-.703-.694-1.67-1.05-2.9-1.07H5v6zm21.026 4H23v8h-5V83l7 1.5c2.46 0 3.662.897 5 2s1.5.91 1.5 3c0 1.426 1.548 2.567.855 3.534C31.67 93.991 31 95 30 95.5l5 9.31v.19h-5l-3.974-8zm-2.953-4.063h2.704c1.25 0 2.227-.312 2.93-.937.703-.635.793-.906.793-2 0-1.143-.139-1.408-.793-2.033-.645-.625-1.611-.948-2.9-.967H23l.073 5.938zM71 97h-4v5h-5V83h10v5h-5v4h4v5zm20 3h3v5h-8V86h5v14zm24-4h-9v4h8v5h-12.945V83H114v5h-8v4h9v4z" fill="#fff"/><path d="M75.875 85.5a2.5 2.5 0 01-2.5 2.5c-5.5 0-3.5-1.12-3.5-2.5s-3.5-2.5 3.5-2.5a2.5 2.5 0 012.5 2.5zm-2 9a2.5 2.5 0 01-2.5 2.5c-5.5 0-3.5-1.12-3.5-2.5s-3.5-2.5 3.5-2.5a2.5 2.5 0 012.5 2.5zM64.5 104.875a2.5 2.5 0 01-2.5-2.5c0-5.5 1.12-3.5 2.5-3.5s2.5-3.5 2.5 3.5a2.5 2.5 0 01-2.5 2.5zm34.375-2.375a2.5 2.5 0 01-2.5 2.5c-14.375 0-3.5-1.119-3.5-2.5S86 100 96.375 100a2.5 2.5 0 012.5 2.5zM88.5 83a2.5 2.5 0 012.5 2.5C91 99 89.88 89 88.5 89S86 100 86 85.5a2.5 2.5 0 012.5-2.5zm28.375 19.5a2.5 2.5 0 01-2.5 2.5c-5.5 0-3.5-1.119-3.5-2.5s-3.5-2.5 3.5-2.5a2.5 2.5 0 012.5 2.5zm0-17a2.5 2.5 0 01-2.5 2.5c-5.5 0-3.5-1.12-3.5-2.5s-3.5-2.5 3.5-2.5a2.5 2.5 0 012.5 2.5zM117 94c0 1.105-.977 2-2.182 2-4.8 0-3.054-.895-3.054-2s-3.055-2 3.054-2c1.205 0 2.182.895 2.182 2zm-39 .5a2.5 2.5 0 015 0V105h-5V94.5z" fill="#fff"/><circle cx="80.5" cy="85.5" r="2.5" fill="#fff"/><path d="M97 40.5a2.5 2.5 0 01-2.5 2.5C89 43 91 41.88 91 40.5S87.5 38 94.5 38a2.5 2.5 0 012.5 2.5zM80.5 64.875a2.5 2.5 0 01-2.5-2.5c0-5.5 1.12-3.5 2.5-3.5s2.5-3.5 2.5 3.5a2.5 2.5 0 01-2.5 2.5z" fill="#fff"/><rect x="101" y="38" width="16" height="27" rx="8" fill="#fff"/><path d="M106 56a3 3 0 116 0v9h-6v-9z" fill="#272727"/><circle cx="109" cy="46" r="3" fill="#272727"/><circle cx="47" cy="94" r="11" fill="#fff"/><circle cx="47" cy="94" r="6" fill="url(#paint0_linear)"/><path d="M7 83a8 8 0 110 16H0V83h7zm18 0a8 8 0 110 16h-7V83h7z" fill="#fff"/><path d="M7 88a3 3 0 110 6H5v-6h2z" fill="url(#paint1_linear)"/><path d="M25 88a3 3 0 110 6h-2v-6h2z" fill="url(#paint2_linear)"/><circle cx="47" cy="94" r="6" fill="#272727"/><path d="M7 88a3 3 0 110 6H5v-6h2zm18 0a3 3 0 110 6h-2v-6h2z" fill="#272727"/><path fill="#fff" d="M1 84h4v11H1z"/><defs><linearGradient id="paint0_linear" x1="45" y1="98" x2="51.5" y2="83.5" gradientUnits="userSpaceOnUse"><stop stop-color="#535353"/><stop offset="1"/></linearGradient><linearGradient id="paint1_linear" x1="4.5" y1="95" x2="9" y2="87" gradientUnits="userSpaceOnUse"><stop stop-color="#575757"/><stop offset="1" stop-color="#272727"/></linearGradient><linearGradient id="paint2_linear" x1="23" y1="94" x2="26.5" y2="88" gradientUnits="userSpaceOnUse"><stop stop-color="#1E1C20"/><stop offset="1" stop-color="#202020"/></linearGradient></defs></svg>